<svg width="36" height="36" viewBox="0 0 36 36" fill="none" xmlns="http://www.w3.org/2000/svg">
<path d="M12.6667 6.00006C8.99067 6.00006 6 8.99073 6 12.6667V23.3334C6 27.0094 8.99067 30.0001 12.6667 30.0001H23.3333C27.0093 30.0001 30 27.0094 30 23.3334V12.6667C30 8.99073 27.0093 6.00006 23.3333 6.00006H12.6667ZM12.6667 8.66673H23.3333C25.5387 8.66673 27.3333 10.4614 27.3333 12.6667V23.3334C27.3333 25.5387 25.5387 27.3334 23.3333 27.3334H12.6667C10.4613 27.3334 8.66667 25.5387 8.66667 23.3334V12.6667C8.66667 10.4614 10.4613 8.66673 12.6667 8.66673ZM24.6667 10.0001C24.313 10.0001 23.9739 10.1405 23.7239 10.3906C23.4738 10.6406 23.3333 10.9798 23.3333 11.3334C23.3333 11.687 23.4738 12.0262 23.7239 12.2762C23.9739 12.5263 24.313 12.6667 24.6667 12.6667C25.0203 12.6667 25.3594 12.5263 25.6095 12.2762C25.8595 12.0262 26 11.687 26 11.3334C26 10.9798 25.8595 10.6406 25.6095 10.3906C25.3594 10.1405 25.0203 10.0001 24.6667 10.0001ZM18 11.3334C14.324 11.3334 11.3333 14.3241 11.3333 18.0001C11.3333 21.6761 14.324 24.6667 18 24.6667C21.676 24.6667 24.6667 21.6761 24.6667 18.0001C24.6667 14.3241 21.676 11.3334 18 11.3334ZM18 14.0001C20.2053 14.0001 22 15.7947 22 18.0001C22 20.2054 20.2053 22.0001 18 22.0001C15.7947 22.0001 14 20.2054 14 18.0001C14 15.7947 15.7947 14.0001 18 14.0001Z" fill="#5C8EE6"/>
</svg>
