<svg width="36" height="36" viewBox="0 0 36 36" fill="none" xmlns="http://www.w3.org/2000/svg">
<path d="M6.46875 14.9531C7.54688 15.7969 8.90625 16.8281 13.6875 20.2969C14.625 21 16.3594 22.5469 18 22.5469C19.6875 22.5469 21.375 21 22.3594 20.2969C27.1406 16.8281 28.5 15.7969 29.5781 14.9531C29.7656 14.8125 30 14.9531 30 15.1875V24.75C30 26.0156 29.0156 27 27.75 27H8.25C7.03125 27 6 26.0156 6 24.75V15.1875C6 14.9531 6.28125 14.8125 6.46875 14.9531ZM18 21C16.9219 21.0469 15.375 19.6406 14.5781 19.0781C8.34375 14.5781 7.875 14.1562 6.46875 13.0312C6.1875 12.8438 6 12.5156 6 12.1406V11.25C6 10.0312 7.03125 9 8.25 9H27.75C29.0156 9 30 10.0312 30 11.25V12.1406C30 12.5156 29.8594 12.8438 29.5781 13.0312C28.1719 14.1562 27.7031 14.5781 21.4688 19.0781C20.6719 19.6406 19.125 21.0469 18 21Z" fill="#5C8EE6"/>
</svg>
