<?xml version="1.0" encoding="utf-8"?><svg viewBox="0 0 180 180" xmlns="http://www.w3.org/2000/svg" xmlns:xlink="http://www.w3.org/1999/xlink"><style>:root>svg{display:none}:root>svg:target{display:block}</style><svg viewBox="0 0 24 24" id="fb" xmlns="http://www.w3.org/2000/svg"><path d="M16.035 13.125l.492-3.234h-3.129V7.78c0-.914.422-1.758 1.829-1.758h1.441V3.246S15.368 3 14.137 3C11.57 3 9.883 4.582 9.883 7.395V9.89H7v3.234h2.883V21h3.515v-7.875h2.637z"/></svg><svg viewBox="0 0 24 24" id="google" xmlns="http://www.w3.org/2000/svg"><path d="M14.148 10.8c.036.352.106.669.106 1.126 0 3.867-2.602 6.574-6.504 6.574A6.73 6.73 0 011 11.75 6.752 6.752 0 017.75 5c1.828 0 3.34.668 4.535 1.793l-1.828 1.758c-.492-.492-1.371-1.055-2.707-1.055-2.285 0-4.184 1.899-4.184 4.254 0 2.39 1.899 4.29 4.184 4.29 2.672 0 3.691-1.934 3.832-2.919H7.75v-2.32h6.398zm6.504.212V9.078h-1.968v1.934h-1.97v1.968h1.97v1.97h1.968v-1.97h1.97v-1.968h-1.97z"/></svg><svg viewBox="0 0 24 24" id="inst" xmlns="http://www.w3.org/2000/svg"><path d="M8.444 4A4.45 4.45 0 004 8.444v7.112A4.45 4.45 0 008.444 20h7.112A4.45 4.45 0 0020 15.556V8.444A4.45 4.45 0 0015.556 4H8.444zm0 1.778h7.112a2.67 2.67 0 012.666 2.666v7.112a2.67 2.67 0 01-2.666 2.666H8.444a2.67 2.67 0 01-2.666-2.666V8.444a2.67 2.67 0 012.666-2.666zm8 .889a.889.889 0 100 1.777.889.889 0 000-1.777zM12 7.556A4.45 4.45 0 007.556 12 4.45 4.45 0 0012 16.444 4.45 4.45 0 0016.444 12 4.45 4.45 0 0012 7.556zm0 1.777A2.67 2.67 0 0114.667 12 2.67 2.67 0 0112 14.667 2.67 2.67 0 019.333 12 2.67 2.67 0 0112 9.333z"/></svg><svg viewBox="0 0 180 180" id="logo-ag" xmlns="http://www.w3.org/2000/svg"><path d="M118.028 56.416h-13.575l-3.451-5.543-6.675-10.352L78.49 65.127l-7.297 11.427-5.94 9.276-7.296 11.37-5.996 9.277-7.297 11.426h-13.52l7.297-11.426 5.94-9.277 7.297-11.37 5.94-9.276L87.538 30h13.576l6.618 10.352 6.788 10.52 3.507 5.544z"/><path d="M157.511 117.903H57.221l8.088-11.426 5.94-9.277 7.297-11.37 5.995-9.276 7.297-11.427h31.847l7.297 11.427H98.061l-5.94 9.276-7.297 11.37-5.94 9.277h57.754l-5.939-9.277h-34.11l7.581-11.37h32.751l7.354 11.37 5.939 9.277 7.297 11.426zM39.855 150.089l-1.64-2.942H29.22l2.206-4.129h4.639l-3.281-6.165-7.07 13.236H20l9.842-17.818c.51-.962 1.301-1.414 2.32-1.414h1.188c.961 0 1.753.452 2.262 1.414l9.843 17.818h-5.6zm15.046 0c-1.47 0-2.828-.226-4.073-.679a9.344 9.344 0 01-3.224-1.98 8.311 8.311 0 01-2.15-2.998c-.508-1.188-.735-2.489-.735-3.959 0-1.414.227-2.772.736-3.903a9.06 9.06 0 012.149-3.055 9.375 9.375 0 013.224-1.98c1.245-.452 2.602-.678 4.073-.678h10.295v4.921H54.562c-.68 0-1.301.113-1.867.339-.622.226-1.075.566-1.527.962-.396.452-.736.905-.962 1.527a4.984 4.984 0 00-.34 1.867c0 .679.114 1.301.34 1.923.226.566.566 1.018.962 1.414.452.453.905.735 1.527.962a4.987 4.987 0 001.867.339h5.713v-2.602h-6.222v-4.129h11.143v11.709H54.901zm27.604 0v-14.311h-7.127v-4.921h19.345v4.921h-7.07v14.311h-5.148zm21.382-7.58v-4.129h11.37v4.129h-11.37zm-6.901 7.58v-19.232h18.44v4.921h-13.293v9.333h13.35v4.978H96.986zm31.111 0c-1.527 0-2.885-.226-4.129-.679-1.245-.452-2.32-1.131-3.168-1.98a8.309 8.309 0 01-2.149-2.998c-.51-1.188-.792-2.489-.792-3.959 0-1.414.282-2.772.792-3.903a9.058 9.058 0 012.149-3.055c.848-.848 1.923-1.527 3.168-1.98 1.244-.452 2.602-.678 4.129-.678h9.39v4.921h-9.786a4.99 4.99 0 00-1.867.339 4.424 4.424 0 00-1.47.962c-.396.452-.736.905-.962 1.527a4.99 4.99 0 00-.339 1.867c0 .679.113 1.301.339 1.923.226.566.566 1.018.962 1.414.396.453.905.735 1.47.962a4.99 4.99 0 001.867.339h9.786v4.978h-9.39zm26.756 0v-7.467h-7.524v-4.695h7.524v-7.07H160v19.232h-5.147zm-14.481 0v-19.232h5.204v19.232h-5.204z"/></svg><svg viewBox="0 0 180 180" id="logo-ap" xmlns="http://www.w3.org/2000/svg"><path d="M55.115 141.929a.414.414 0 01-.135.328.469.469 0 01-.347.125h-2.805a.436.436 0 01-.318-.135.662.662 0 01-.183-.318l-1.224-5.031h-6.091l-1.224 5.031a.663.663 0 01-.183.318.436.436 0 01-.319.135h-2.804a.469.469 0 01-.347-.125.414.414 0 01-.135-.328c0-.019.01-.039.01-.048a.19.19 0 00.019-.087l4.347-16.616c.154-.617.385-1.098.684-1.455.299-.347.626-.617.973-.81a3.288 3.288 0 011.06-.356 7.45 7.45 0 01.964-.077c.28 0 .607.029.964.077.366.058.723.173 1.06.356.347.193.665.463.974.81.298.357.53.838.684 1.455l4.347 16.616c0 .039.01.067.01.087a.075.075 0 01.019.048zm-7.634-15.922c-.038-.164-.077-.27-.135-.337-.048-.058-.144-.087-.289-.087-.144 0-.24.029-.289.087-.058.067-.096.173-.135.337l-1.908 7.865h4.665l-1.909-7.865zm20.751 15.662c0 .192-.039.327-.116.395a.894.894 0 01-.414.154 4.897 4.897 0 01-.839.145c-.356.048-.752.086-1.176.125-.424.038-.858.058-1.3.077-.444.019-.84.029-1.196.029-.858 0-1.667-.068-2.41-.212-.742-.145-1.387-.415-1.927-.81-.55-.395-.983-.954-1.301-1.657-.318-.704-.482-1.62-.482-2.757v-13.936c0-.145.058-.27.164-.376a.503.503 0 01.366-.154h2.622a.51.51 0 01.376.154.518.518 0 01.163.376v13.936c0 .887.145 1.484.444 1.802.298.319.838.482 1.619.482h4.877a.49.49 0 01.366.155.518.518 0 01.164.375v1.697zm6.197.183c0 .144-.048.26-.154.366a.519.519 0 01-.376.164h-2.622a.498.498 0 01-.366-.164.498.498 0 01-.164-.366v-18.659a.48.48 0 01.164-.357.518.518 0 01.366-.144H73.9c.144 0 .27.048.376.144a.47.47 0 01.154.357v18.659zm18.601.077c0 .145-.038.251-.125.328a.469.469 0 01-.347.125h-2.815a.43.43 0 01-.308-.135.68.68 0 01-.193-.318l-1.214-5.031h-6.1l-1.215 5.031a.751.751 0 01-.183.318.47.47 0 01-.318.135h-2.815a.5.5 0 01-.347-.125c-.086-.077-.125-.183-.125-.328 0-.019 0-.039.01-.048.01-.02.01-.048.01-.087l4.346-16.616c.164-.617.395-1.098.694-1.455.299-.347.617-.617.964-.81a3.45 3.45 0 011.06-.356 7.58 7.58 0 01.973-.077c.28 0 .598.029.964.077a3.37 3.37 0 011.06.356c.347.193.665.463.964.81.299.357.53.838.694 1.455l4.347 16.616c0 .039 0 .067.01.087.009.009.009.029.009.048zm-7.624-15.922a.953.953 0 00-.135-.337c-.057-.058-.154-.087-.289-.087-.144 0-.24.029-.298.087a.815.815 0 00-.126.337l-1.908 7.865h4.665l-1.909-7.865zm25.011 15.315c0 .299-.097.549-.299.752a1.065 1.065 0 01-.761.308h-2.68c-.308 0-.607-.039-.886-.125-.27-.077-.511-.357-.723-.829l-5.889-12.905c-.067-.145-.145-.212-.231-.212-.097 0-.135.067-.135.212v13.329c0 .144-.048.26-.145.366a.478.478 0 01-.356.164h-2.256a.519.519 0 01-.376-.164.489.489 0 01-.154-.366v-18.1a.99.99 0 01.309-.752c.202-.202.453-.308.751-.308h2.863c.28 0 .51.048.674.154.164.106.328.337.492.694l6.168 13.618c.058.145.126.212.212.212.097 0 .135-.077.135-.241v-13.936c0-.337.174-.501.501-.501h2.285c.337 0 .501.164.501.501v18.129zm15.69.241c0 .192-.058.327-.164.404-.106.087-.241.145-.424.203a3.095 3.095 0 01-.539.116c-.261.048-.569.086-.945.134-.366.049-.781.087-1.243.116a17.14 17.14 0 01-1.456.058c-.79 0-1.638-.116-2.515-.347a6.181 6.181 0 01-2.419-1.253c-.733-.617-1.33-1.436-1.812-2.487-.482-1.04-.723-2.38-.723-4.019v-3.903c0-1.658.241-3.017.723-4.067.482-1.051 1.079-1.879 1.812-2.477a6.14 6.14 0 012.419-1.234 10.338 10.338 0 012.515-.327c.511 0 1.003.019 1.456.048.462.038.877.077 1.243.125.376.039.684.087.945.145.26.048.433.086.539.106.183.048.318.115.424.202.106.077.164.212.164.405v1.773a.672.672 0 01-.115.405c-.087.106-.222.154-.415.154h-.058c-.221-.019-.501-.038-.829-.067-.327-.019-.674-.048-1.05-.068-.366-.009-.752-.029-1.137-.048a22.882 22.882 0 00-1.118-.029c-.559 0-1.08.087-1.542.251a2.816 2.816 0 00-1.205.829c-.337.376-.607.886-.8 1.522-.193.637-.289 1.417-.289 2.352v3.903c0 .916.096 1.687.289 2.323.193.636.463 1.157.8 1.542.328.386.732.665 1.205.839.462.164.983.25 1.542.25.356 0 .732-.009 1.118-.029l1.137-.057c.376-.01.723-.039 1.05-.058.328-.029.608-.048.829-.068h.058c.193 0 .328.049.415.155.077.106.115.24.115.395v1.783zm14.92.106c0 .192-.039.327-.116.395a.896.896 0 01-.414.154c-.212.039-.444.077-.704.125-.26.039-.578.077-.954.116-.376.039-.839.067-1.378.096-.54.029-1.205.039-2.005.039-.858 0-1.667-.068-2.409-.212-.743-.145-1.398-.415-1.947-.81-.55-.395-.983-.954-1.301-1.657-.328-.704-.482-1.62-.482-2.757v-9.243c0-1.137.154-2.052.482-2.756.318-.713.751-1.263 1.301-1.658.549-.395 1.204-.665 1.947-.809a12.625 12.625 0 012.409-.212c.8 0 1.465.009 2.005.038a29.47 29.47 0 011.378.097c.376.029.694.077.954.115.26.048.492.087.704.116a.985.985 0 01.414.164c.077.067.116.202.116.395v1.696c0 .145-.058.27-.164.376a.488.488 0 01-.366.154h-5.407c-.781 0-1.321.164-1.629.482-.308.318-.463.916-.463 1.802v2.863h7.181c.144 0 .26.048.366.154a.519.519 0 01.164.376v1.908a.516.516 0 01-.164.367.497.497 0 01-.366.163h-7.181v3.412c0 .887.155 1.484.463 1.802.308.319.848.482 1.629.482h5.407a.49.49 0 01.366.155.518.518 0 01.164.375v1.697zM48.85 151.23c0 .742-.135 1.368-.395 1.869-.27.511-.627.916-1.07 1.234a4.5 4.5 0 01-1.552.655 8.833 8.833 0 01-1.86.193c-.231 0-.491-.01-.78-.029-.3-.009-.54-.029-.733-.038v4.414a.345.345 0 01-.087.231.322.322 0 01-.231.106h-1.687a.326.326 0 01-.24-.106.324.324 0 01-.107-.231v-11.633c0-.164.049-.289.145-.357a.773.773 0 01.405-.144c.433-.068.944-.126 1.523-.164a26.659 26.659 0 011.792-.058 8.91 8.91 0 011.86.183c.588.125 1.109.337 1.552.646.443.299.8.703 1.07 1.205.26.501.395 1.127.395 1.869v.155zm-2.352-.164c0-.714-.212-1.215-.636-1.513-.414-.309-1.05-.453-1.898-.453-.087 0-.203 0-.347.009-.135 0-.28.01-.424.019-.155 0-.29.01-.415.01a6.45 6.45 0 00-.318.029v4.038c.068 0 .173 0 .318.01.135 0 .28.01.434.019.154 0 .298.01.443.01.135.009.241.009.309.009.915 0 1.56-.163 1.956-.51.386-.338.578-.848.578-1.523v-.154zm13.32 8.597c0 .135-.068.202-.203.202h-2.062a.227.227 0 01-.203-.106 1.343 1.343 0 01-.134-.231l-2.439-4.501h-.231c-.231 0-.482-.01-.78-.019-.29-.02-.53-.039-.724-.049v4.569a.355.355 0 01-.096.231.292.292 0 01-.231.106h-1.687a.322.322 0 01-.231-.106.324.324 0 01-.106-.231v-11.633c0-.164.048-.289.144-.357a.77.77 0 01.395-.144c.444-.068.955-.126 1.523-.164a26.738 26.738 0 011.803-.058 8.9 8.9 0 011.86.193 4.728 4.728 0 011.542.636c.453.289.81.684 1.07 1.176.27.491.395 1.089.395 1.812v.154c0 .906-.203 1.629-.617 2.197a3.686 3.686 0 01-1.677 1.253l2.65 4.935c.03.029.039.077.039.135zm-2.737-8.674c0-.637-.212-1.099-.636-1.379-.425-.289-1.06-.424-1.9-.424-.096 0-.211 0-.346.01-.145 0-.29.01-.434.01-.144.009-.28.009-.414.019a5.73 5.73 0 00-.309.029v3.797c.068 0 .174 0 .309.01.144.009.289.009.443.019.154 0 .299.01.434.019h.318c.877 0 1.523-.135 1.928-.414.404-.289.607-.8.607-1.542v-.154zm13.579 3.739c0 .935-.115 1.735-.356 2.4-.25.665-.578 1.205-1.002 1.629a4.006 4.006 0 01-1.523.935 5.869 5.869 0 01-1.928.308c-.694 0-1.33-.106-1.918-.308a4.007 4.007 0 01-1.523-.935c-.424-.424-.751-.964-1.002-1.629-.24-.665-.357-1.465-.357-2.4v-2.284c0-.925.116-1.725.357-2.39.25-.675.578-1.215 1.002-1.639a4.007 4.007 0 011.523-.935 5.852 5.852 0 011.918-.308c.704 0 1.34.106 1.928.308a4.01 4.01 0 011.523.935c.424.424.751.964 1.002 1.639.24.665.356 1.465.356 2.39v2.284zm-2.341-2.284c0-1.128-.203-1.947-.608-2.458-.395-.511-1.021-.771-1.86-.771-.829 0-1.455.26-1.85.771-.405.511-.608 1.33-.608 2.458v2.284c0 1.128.203 1.947.608 2.458.395.511 1.021.771 1.85.771.839 0 1.465-.26 1.86-.771.405-.511.608-1.33.608-2.458v-2.284zm13.647 2.38c0 1.677-.453 2.959-1.378 3.846-.916.887-2.227 1.33-3.933 1.33-.308 0-.626-.01-.964-.019-.327-.01-.655-.029-.963-.048-.309-.029-.588-.049-.839-.068-.26-.029-.453-.048-.569-.067a.614.614 0 01-.337-.155c-.067-.077-.106-.202-.106-.375v-11.373c0-.164.039-.289.106-.366a.553.553 0 01.337-.155 6.26 6.26 0 01.57-.067c.25-.019.53-.048.838-.068.308-.019.636-.038.963-.048.338-.009.656-.019.964-.019 1.706 0 3.017.443 3.933 1.33.925.877 1.378 2.159 1.378 3.846v2.476zm-2.342-2.476c0-.627-.077-1.157-.232-1.562-.154-.414-.366-.742-.626-.983a2.26 2.26 0 00-.945-.511 4.641 4.641 0 00-1.175-.144c-.319 0-.588.009-.81.019-.231.01-.434.019-.607.029v8.79c.173.009.376.019.607.038.222.01.492.01.81.01.414 0 .81-.048 1.175-.145.367-.086.675-.26.945-.501.26-.25.472-.569.626-.983.155-.414.232-.935.232-1.571v-2.486zm13.734 2.872c0 .896-.116 1.648-.347 2.255-.232.617-.55 1.099-.964 1.474a3.645 3.645 0 01-1.475.8 6.671 6.671 0 01-1.86.251 6.741 6.741 0 01-1.87-.251 3.645 3.645 0 01-1.474-.8c-.405-.375-.723-.857-.954-1.474-.232-.607-.347-1.359-.347-2.255v-7.595a.28.28 0 01.096-.222.32.32 0 01.241-.096h1.668c.096 0 .173.029.24.096a.28.28 0 01.097.222v7.604c0 .482.038.906.106 1.263.067.347.183.646.366.886.174.241.405.415.694.521.299.116.675.173 1.137.173.444 0 .82-.057 1.118-.173.299-.106.54-.28.713-.521.174-.24.3-.539.367-.886a6.95 6.95 0 00.096-1.263v-7.604a.29.29 0 01.106-.222.314.314 0 01.231-.096h1.677c.087 0 .164.029.232.096a.289.289 0 01.106.222v7.595zm9.917 4.115c0 .125-.029.212-.096.27a1.087 1.087 0 01-.28.125 3.99 3.99 0 01-.337.077c-.164.029-.366.048-.607.077-.232.029-.501.058-.791.077a9.53 9.53 0 01-.934.039 6.428 6.428 0 01-1.6-.222 3.865 3.865 0 01-1.542-.8c-.463-.395-.849-.915-1.157-1.58-.308-.665-.463-1.523-.463-2.574v-2.476c0-1.061.155-1.928.463-2.603.308-.665.694-1.195 1.157-1.58a3.969 3.969 0 011.542-.781 6.395 6.395 0 011.6-.212c.327 0 .645.01.934.039.29.019.559.048.791.067.241.029.443.067.607.096.154.039.27.058.337.068.116.038.212.077.28.125.067.048.096.145.096.26v1.138a.429.429 0 01-.077.25c-.048.068-.135.106-.26.106h-.039c-.144-.009-.318-.029-.53-.048-.202-.01-.424-.029-.665-.039a17.498 17.498 0 01-.723-.038c-.25-.01-.491-.01-.713-.01-.356 0-.694.048-.993.154a1.83 1.83 0 00-.761.531c-.222.241-.385.559-.51.963-.126.415-.184.916-.184 1.514v2.476c0 .588.058 1.08.183 1.494.126.405.29.733.511.974.212.25.463.424.761.53.3.115.636.164.993.164.222 0 .463-.01.713-.02l.723-.029c.241-.009.463-.028.665-.048.212-.009.386-.029.53-.038h.039c.125 0 .212.038.26.106a.407.407 0 01.077.25v1.128zm10.139-10.37a.286.286 0 01-.106.221.334.334 0 01-.231.077h-2.959v10.265a.314.314 0 01-.096.231.345.345 0 01-.241.106h-1.677a.324.324 0 01-.232-.106.326.326 0 01-.106-.231v-10.265h-2.949a.346.346 0 01-.241-.077.28.28 0 01-.096-.221v-1.34a.28.28 0 01.096-.222.323.323 0 01.241-.096h8.26c.087 0 .164.029.231.096a.287.287 0 01.106.222v1.34zm4.038 10.563a.322.322 0 01-.106.231.32.32 0 01-.231.106h-1.677a.32.32 0 01-.231-.106.322.322 0 01-.106-.231v-11.903c0-.087.038-.164.106-.222a.313.313 0 01.231-.096h1.677c.087 0 .164.029.231.096a.287.287 0 01.106.222v11.903zm11.807-4.8c0 .935-.116 1.735-.357 2.4-.241.665-.578 1.205-1.002 1.629a4.01 4.01 0 01-1.523.935 5.853 5.853 0 01-1.918.308c-.703 0-1.34-.106-1.927-.308a3.975 3.975 0 01-1.514-.935c-.433-.424-.761-.964-1.002-1.629s-.366-1.465-.366-2.4v-2.284c0-.925.125-1.725.366-2.39.241-.675.569-1.215 1.002-1.639a3.975 3.975 0 011.514-.935 5.864 5.864 0 011.927-.308c.694 0 1.33.106 1.918.308a4.01 4.01 0 011.523.935c.424.424.761.964 1.002 1.639.241.665.357 1.465.357 2.39v2.284zm-2.342-2.284c0-1.128-.203-1.947-.607-2.458-.396-.511-1.022-.771-1.851-.771-.838 0-1.455.26-1.86.771s-.597 1.33-.597 2.458v2.284c0 1.128.192 1.947.597 2.458.405.511 1.022.771 1.86.771.829 0 1.455-.26 1.851-.771.404-.511.607-1.33.607-2.458v-2.284zm14.052 6.746a.658.658 0 01-.675.675h-1.706c-.202 0-.385-.029-.559-.077-.183-.048-.337-.231-.472-.53l-3.749-8.231c-.048-.096-.096-.135-.154-.135-.058 0-.077.039-.077.135v8.501a.355.355 0 01-.097.231.305.305 0 01-.231.106h-1.436a.32.32 0 01-.231-.106.322.322 0 01-.106-.231v-11.546c0-.193.067-.347.192-.482a.675.675 0 01.482-.193h1.831c.174 0 .318.038.424.106.106.067.213.212.319.434l3.932 8.683c.038.097.077.135.135.135.058 0 .086-.048.086-.144v-8.896c0-.212.106-.318.319-.318h1.455c.212 0 .318.106.318.318v11.565z"/><path fill-rule="evenodd" clip-rule="evenodd" d="M89.946 29.879c4.626 0 9.04.906 13.069 2.554v31.583c0 7.161-5.802 12.963-12.963 12.963-3.046 0-5.84-1.05-8.057-2.804v11.478a23.016 23.016 0 008.057 1.446c14.081 0 23.131-11.122 23.131-24.606v-35.92A44.157 44.157 0 0089.946 20c-24.51 0-44.373 19.864-44.373 44.373 0 13.994 6.477 26.475 16.596 34.61v-14.14a34.39 34.39 0 01-6.727-20.47c0-19.054 15.45-34.494 34.504-34.494z"/><path fill-rule="evenodd" clip-rule="evenodd" d="M90.08 98.896c-4.625 0-9.04-.906-13.068-2.564V64.75c0-7.152 5.802-12.963 12.963-12.963 3.045 0 5.84 1.05 8.057 2.814v-11.48a23.016 23.016 0 00-8.057-1.445c-14.081 0-23.14 11.112-23.14 24.605v35.921a44.22 44.22 0 0023.246 6.573c24.509 0 44.373-19.874 44.373-44.373 0-13.995-6.477-26.476-16.606-34.61v14.139a34.325 34.325 0 016.727 20.47c0 19.055-15.44 34.495-34.494 34.495z"/></svg><svg viewBox="0 0 24 24" id="mail" xmlns="http://www.w3.org/2000/svg"><path d="M4.313 9.969c.718.562 1.625 1.25 4.812 3.562.625.469 1.781 1.5 2.875 1.5 1.125 0 2.25-1.031 2.906-1.5 3.188-2.312 4.094-3 4.813-3.562.125-.094.281 0 .281.156V16.5c0 .844-.656 1.5-1.5 1.5h-13A1.5 1.5 0 014 16.5v-6.375c0-.156.188-.25.313-.156zM12 14c-.719.031-1.75-.906-2.281-1.281-4.156-3-4.469-3.281-5.406-4.031A.711.711 0 014 8.094V7.5C4 6.687 4.688 6 5.5 6h13A1.5 1.5 0 0120 7.5v.594c0 .25-.094.469-.281.594-.938.75-1.25 1.03-5.407 4.03-.53.376-1.562 1.313-2.312 1.282z"/></svg><svg viewBox="0 0 24 24" id="phone" xmlns="http://www.w3.org/2000/svg"><path d="M19.969 16.082l-.75 3.156a.94.94 0 01-.938.782C10.406 19.988 4 13.582 4 5.707c0-.469.281-.844.75-.937l3.156-.75c.438-.094.907.156 1.094.562l1.469 3.406c.156.407.062.875-.281 1.125L8.5 10.488a10.851 10.851 0 005 4.97l1.375-1.688c.25-.313.719-.438 1.125-.282l3.406 1.47c.407.218.657.687.563 1.124z"/></svg><svg viewBox="0 0 24 24" id="place" xmlns="http://www.w3.org/2000/svg"><path d="M12.625 19.688a.73.73 0 01-1.219 0C6.844 13.125 6 12.438 6 10c0-3.313 2.688-6 6-6 3.344 0 6 2.688 6 6 0 2.438-.813 3.125-5.375 9.688zM12 12.5c1.406 0 2.5-1.094 2.5-2.5 0-1.375-1.094-2.5-2.5-2.5A2.507 2.507 0 009.5 10c0 1.406 1.125 2.5 2.5 2.5z"/></svg><svg viewBox="0 0 24 24" id="tw" xmlns="http://www.w3.org/2000/svg"><path d="M19.137 8.621v.492C19.137 14 15.445 19.59 8.66 19.59c-2.11 0-4.043-.598-5.66-1.652.281.035.563.07.879.07a7.421 7.421 0 004.57-1.582 3.673 3.673 0 01-3.445-2.567c.246.036.457.07.703.07.316 0 .668-.07.95-.14a3.696 3.696 0 01-2.954-3.621v-.035c.492.281 1.09.422 1.688.457a3.632 3.632 0 01-1.653-3.06c0-.703.176-1.336.492-1.863a10.71 10.71 0 007.63 3.867 3.468 3.468 0 01-.106-.844A3.69 3.69 0 0115.445 5c1.055 0 2.004.422 2.707 1.16a7.798 7.798 0 002.32-.914 3.607 3.607 0 01-1.617 2.04 6.918 6.918 0 002.11-.563 7.818 7.818 0 01-1.828 1.898z"/></svg><svg viewBox="0 0 24 24" id="vk" xmlns="http://www.w3.org/2000/svg"><path d="M21.444 16.757c-.799-1.437-2.855-3.164-3.704-3.915a.552.552 0 01-.046-.789c1.62-1.741 2.916-3.742 3.363-4.95.196-.535-.211-1.099-.785-1.099h-1.668c-.55 0-.87.197-1.024.511-1.347 2.76-2.502 3.954-3.31 4.652a.702.702 0 01-1.16-.528V6.961a.926.926 0 00-.93-.922l-3.046-.035a.461.461 0 00-.373.738l.503.722c.19.25.292.555.292.867l-.003 3.252c0 .565-.685.841-1.092.445-1.377-1.34-2.572-4.079-3.002-5.388a.927.927 0 00-.882-.636L2.935 6a.926.926 0 00-.9 1.173c1.501 5.268 4.58 10.28 10.069 10.823a.925.925 0 001.007-.921v-1.71c0-.49.384-.91.878-.923h.052c1.452 0 3.077 2.112 3.646 3.1a.92.92 0 00.8.458h2.21c.644 0 1.058-.684.747-1.243z"/></svg></svg>