<svg width="36" height="36" viewBox="0 0 36 36" fill="none" xmlns="http://www.w3.org/2000/svg">
<path d="M32.1659 25.1352C30.9683 22.9799 27.8833 20.3901 26.6097 19.2632C26.2612 18.9546 26.2238 18.4208 26.5411 18.0796C28.9716 15.4678 30.9156 12.4668 31.5847 10.6534C31.88 9.85232 31.2688 9.00594 30.4078 9.00594H27.9066C27.0822 9.00594 26.5997 9.30184 26.3698 9.77301C24.3498 13.9123 22.617 15.7037 21.4041 16.7507C20.725 17.3372 19.666 16.8513 19.666 15.959C19.666 14.2395 19.666 12.0169 19.666 10.4408C19.666 9.67638 19.0409 9.05792 18.2698 9.05792L13.7007 9.00594C13.1255 9.00594 12.797 9.65705 13.1422 10.1136L13.8966 11.1965C14.1805 11.5717 14.3338 12.0283 14.3338 12.4968L14.3298 17.3738C14.3298 18.2222 13.3015 18.6367 12.691 18.0423C10.6257 16.0309 8.83364 11.9236 8.18852 9.95962C8.00192 9.39114 7.46943 9.00727 6.86563 9.00594L4.40178 8.99994C3.47743 8.99994 2.80165 9.87631 3.0529 10.7587C5.30415 18.6607 9.92328 26.1782 18.1552 26.9933C18.9663 27.0732 19.666 26.4201 19.666 25.6117V23.0486C19.666 22.3135 20.2425 21.6817 20.9836 21.6631C21.0096 21.6624 21.0356 21.6624 21.0616 21.6624C23.2388 21.6624 25.6774 24.8313 26.5304 26.3135C26.7757 26.74 27.2342 26.9999 27.73 26.9999H31.0442C32.0113 26.9999 32.6317 25.9743 32.1659 25.1352Z" fill="#5C8EE6"/>
</svg>
